<?xml version="1.0" encoding="UTF-8" standalone="yes"?>
<!-- Created with qrencode 3.4.2 (http://fukuchi.org/works/qrencode/index.html.en) -->
<svg width="3.07cm" height="3.07cm" viewBox="0 0 29 29" preserveAspectRatio="none" version="1.1" xmlns="http://www.w3.org/2000/svg">
	<g id="QRcode">
		<rect x="0" y="0" width="29" height="29" fill="#ffffff" />
		<g id="Pattern">
			<rect x="4" y="4" width="7" height="1" fill="#000000" />
			<rect x="14" y="4" width="2" height="1" fill="#000000" />
			<rect x="18" y="4" width="7" height="1" fill="#000000" />
			<rect x="4" y="5" width="1" height="1" fill="#000000" />
			<rect x="10" y="5" width="1" height="1" fill="#000000" />
			<rect x="12" y="5" width="1" height="1" fill="#000000" />
			<rect x="18" y="5" width="1" height="1" fill="#000000" />
			<rect x="24" y="5" width="1" height="1" fill="#000000" />
			<rect x="4" y="6" width="1" height="1" fill="#000000" />
			<rect x="6" y="6" width="3" height="1" fill="#000000" />
			<rect x="10" y="6" width="1" height="1" fill="#000000" />
			<rect x="12" y="6" width="1" height="1" fill="#000000" />
			<rect x="14" y="6" width="1" height="1" fill="#000000" />
			<rect x="16" y="6" width="1" height="1" fill="#000000" />
			<rect x="18" y="6" width="1" height="1" fill="#000000" />
			<rect x="20" y="6" width="3" height="1" fill="#000000" />
			<rect x="24" y="6" width="1" height="1" fill="#000000" />
			<rect x="4" y="7" width="1" height="1" fill="#000000" />
			<rect x="6" y="7" width="3" height="1" fill="#000000" />
			<rect x="10" y="7" width="1" height="1" fill="#000000" />
			<rect x="13" y="7" width="1" height="1" fill="#000000" />
			<rect x="18" y="7" width="1" height="1" fill="#000000" />
			<rect x="20" y="7" width="3" height="1" fill="#000000" />
			<rect x="24" y="7" width="1" height="1" fill="#000000" />
			<rect x="4" y="8" width="1" height="1" fill="#000000" />
			<rect x="6" y="8" width="3" height="1" fill="#000000" />
			<rect x="10" y="8" width="1" height="1" fill="#000000" />
			<rect x="12" y="8" width="4" height="1" fill="#000000" />
			<rect x="18" y="8" width="1" height="1" fill="#000000" />
			<rect x="20" y="8" width="3" height="1" fill="#000000" />
			<rect x="24" y="8" width="1" height="1" fill="#000000" />
			<rect x="4" y="9" width="1" height="1" fill="#000000" />
			<rect x="10" y="9" width="1" height="1" fill="#000000" />
			<rect x="12" y="9" width="4" height="1" fill="#000000" />
			<rect x="18" y="9" width="1" height="1" fill="#000000" />
			<rect x="24" y="9" width="1" height="1" fill="#000000" />
			<rect x="4" y="10" width="7" height="1" fill="#000000" />
			<rect x="12" y="10" width="1" height="1" fill="#000000" />
			<rect x="14" y="10" width="1" height="1" fill="#000000" />
			<rect x="16" y="10" width="1" height="1" fill="#000000" />
			<rect x="18" y="10" width="7" height="1" fill="#000000" />
			<rect x="12" y="11" width="1" height="1" fill="#000000" />
			<rect x="15" y="11" width="2" height="1" fill="#000000" />
			<rect x="4" y="12" width="2" height="1" fill="#000000" />
			<rect x="7" y="12" width="1" height="1" fill="#000000" />
			<rect x="10" y="12" width="2" height="1" fill="#000000" />
			<rect x="14" y="12" width="1" height="1" fill="#000000" />
			<rect x="18" y="12" width="3" height="1" fill="#000000" />
			<rect x="22" y="12" width="2" height="1" fill="#000000" />
			<rect x="5" y="13" width="1" height="1" fill="#000000" />
			<rect x="8" y="13" width="2" height="1" fill="#000000" />
			<rect x="12" y="13" width="5" height="1" fill="#000000" />
			<rect x="18" y="13" width="3" height="1" fill="#000000" />
			<rect x="24" y="13" width="1" height="1" fill="#000000" />
			<rect x="5" y="14" width="6" height="1" fill="#000000" />
			<rect x="12" y="14" width="1" height="1" fill="#000000" />
			<rect x="16" y="14" width="1" height="1" fill="#000000" />
			<rect x="22" y="14" width="1" height="1" fill="#000000" />
			<rect x="24" y="14" width="1" height="1" fill="#000000" />
			<rect x="7" y="15" width="1" height="1" fill="#000000" />
			<rect x="9" y="15" width="1" height="1" fill="#000000" />
			<rect x="13" y="15" width="1" height="1" fill="#000000" />
			<rect x="15" y="15" width="2" height="1" fill="#000000" />
			<rect x="18" y="15" width="1" height="1" fill="#000000" />
			<rect x="20" y="15" width="2" height="1" fill="#000000" />
			<rect x="23" y="15" width="2" height="1" fill="#000000" />
			<rect x="5" y="16" width="2" height="1" fill="#000000" />
			<rect x="9" y="16" width="3" height="1" fill="#000000" />
			<rect x="14" y="16" width="1" height="1" fill="#000000" />
			<rect x="16" y="16" width="2" height="1" fill="#000000" />
			<rect x="19" y="16" width="1" height="1" fill="#000000" />
			<rect x="21" y="16" width="1" height="1" fill="#000000" />
			<rect x="12" y="17" width="2" height="1" fill="#000000" />
			<rect x="16" y="17" width="1" height="1" fill="#000000" />
			<rect x="19" y="17" width="1" height="1" fill="#000000" />
			<rect x="24" y="17" width="1" height="1" fill="#000000" />
			<rect x="4" y="18" width="7" height="1" fill="#000000" />
			<rect x="12" y="18" width="1" height="1" fill="#000000" />
			<rect x="16" y="18" width="1" height="1" fill="#000000" />
			<rect x="20" y="18" width="4" height="1" fill="#000000" />
			<rect x="4" y="19" width="1" height="1" fill="#000000" />
			<rect x="10" y="19" width="1" height="1" fill="#000000" />
			<rect x="13" y="19" width="3" height="1" fill="#000000" />
			<rect x="19" y="19" width="2" height="1" fill="#000000" />
			<rect x="23" y="19" width="1" height="1" fill="#000000" />
			<rect x="4" y="20" width="1" height="1" fill="#000000" />
			<rect x="6" y="20" width="3" height="1" fill="#000000" />
			<rect x="10" y="20" width="1" height="1" fill="#000000" />
			<rect x="13" y="20" width="1" height="1" fill="#000000" />
			<rect x="15" y="20" width="1" height="1" fill="#000000" />
			<rect x="17" y="20" width="1" height="1" fill="#000000" />
			<rect x="20" y="20" width="2" height="1" fill="#000000" />
			<rect x="23" y="20" width="2" height="1" fill="#000000" />
			<rect x="4" y="21" width="1" height="1" fill="#000000" />
			<rect x="6" y="21" width="3" height="1" fill="#000000" />
			<rect x="10" y="21" width="1" height="1" fill="#000000" />
			<rect x="12" y="21" width="1" height="1" fill="#000000" />
			<rect x="16" y="21" width="2" height="1" fill="#000000" />
			<rect x="20" y="21" width="1" height="1" fill="#000000" />
			<rect x="24" y="21" width="1" height="1" fill="#000000" />
			<rect x="4" y="22" width="1" height="1" fill="#000000" />
			<rect x="6" y="22" width="3" height="1" fill="#000000" />
			<rect x="10" y="22" width="1" height="1" fill="#000000" />
			<rect x="13" y="22" width="1" height="1" fill="#000000" />
			<rect x="15" y="22" width="4" height="1" fill="#000000" />
			<rect x="20" y="22" width="1" height="1" fill="#000000" />
			<rect x="22" y="22" width="1" height="1" fill="#000000" />
			<rect x="24" y="22" width="1" height="1" fill="#000000" />
			<rect x="4" y="23" width="1" height="1" fill="#000000" />
			<rect x="10" y="23" width="1" height="1" fill="#000000" />
			<rect x="12" y="23" width="2" height="1" fill="#000000" />
			<rect x="15" y="23" width="1" height="1" fill="#000000" />
			<rect x="17" y="23" width="1" height="1" fill="#000000" />
			<rect x="4" y="24" width="7" height="1" fill="#000000" />
			<rect x="12" y="24" width="4" height="1" fill="#000000" />
			<rect x="17" y="24" width="2" height="1" fill="#000000" />
			<rect x="20" y="24" width="1" height="1" fill="#000000" />
			<rect x="23" y="24" width="1" height="1" fill="#000000" />
		</g>
	</g>
</svg>
